<?xml version="1.0" standalone="no"?>
<!DOCTYPE svg PUBLIC "-//W3C//DTD SVG 20010904//EN"
 "http://www.w3.org/TR/2001/REC-SVG-20010904/DTD/svg10.dtd">
<svg version="1.0" xmlns="http://www.w3.org/2000/svg"
 width="40.000000pt" height="40.000000pt" viewBox="0 0 40.000000 40.000000"
 preserveAspectRatio="xMidYMid meet">

<g transform="translate(0.000000,40.000000) scale(0.100000,-0.100000)"
fill="#000000" stroke="none">
<path d="M0 200 l0 -200 200 0 200 0 0 200 0 200 -200 0 -200 0 0 -200z m200
166 c0 -2 -7 -9 -15 -16 -13 -11 -14 -10 -9 4 5 14 24 23 24 12z m44 -16 c-10
-4 -21 -6 -24 -3 -8 7 24 22 34 16 5 -4 1 -10 -10 -13z m-34 -180 c0 -5 -4
-10 -10 -10 -5 0 -10 5 -10 10 0 6 5 10 10 10 6 0 10 -4 10 -10z m-50 -55
c-27 -29 -37 -27 -20 4 6 12 18 21 27 21 13 0 12 -5 -7 -25z m100 4 c17 -31 7
-33 -20 -4 -19 20 -20 25 -7 25 9 0 21 -9 27 -21z m-36 -57 c-8 -7 -14 -21
-14 -30 -1 -15 -3 -14 -15 3 -8 11 -18 25 -23 30 -6 7 3 11 28 11 32 0 36 -2
24 -14z"/>
</g>
</svg>
